<?xml version="1.0" standalone="no"?>
<!DOCTYPE svg PUBLIC "-//W3C//DTD SVG 20010904//EN"
 "http://www.w3.org/TR/2001/REC-SVG-20010904/DTD/svg10.dtd">
<svg version="1.0" xmlns="http://www.w3.org/2000/svg"
 width="700.000000pt" height="700.000000pt" viewBox="0 0 700.000000 700.000000"
 preserveAspectRatio="xMidYMid meet">
<metadata>
Created by potrace 1.14, written by Peter Selinger 2001-2017
</metadata>
<g transform="translate(0.000000,700.000000) scale(0.100000,-0.100000)"
fill="#000000" stroke="none">
<path d="M3468 5905 c-2 -2 -45 -6 -96 -9 -51 -4 -100 -9 -110 -10 -9 -2 -39
-7 -65 -10 -27 -4 -59 -10 -70 -12 -12 -3 -40 -8 -62 -13 -323 -68 -674 -227
-960 -434 -222 -161 -395 -328 -604 -582 -46 -56 -150 -211 -215 -318 -226
-377 -359 -774 -403 -1202 -3 -27 -6 -526 -7 -1108 l-1 -1057 2625 0 2625 0
-1 1047 c-1 926 -4 1145 -19 1243 -2 14 -6 45 -10 70 -12 83 -16 105 -31 180
-139 681 -527 1321 -1044 1720 -25 19 -47 37 -50 40 -5 5 -138 93 -204 134
-183 114 -470 225 -711 274 -95 19 -120 23 -240 38 -51 6 -342 13 -347 9z"/>
</g>
</svg>
