<svg width="24" height="24" viewBox="0 0 24 24" fill="none" xmlns="http://www.w3.org/2000/svg">
<path fill-rule="evenodd" clip-rule="evenodd" d="M12 0.0400391C5.37 0.0400391 0 5.41004 0 12.04C0 17.35 3.435 21.835 8.205 23.425C8.805 23.53 9.03 23.17 9.03 22.855C9.03 22.57 9.015 21.625 9.015 20.62C6 21.175 5.22 19.885 4.98 19.21C4.845 18.865 4.26 17.8 3.75 17.515C3.33 17.29 2.73 16.735 3.735 16.72C4.68 16.705 5.355 17.59 5.58 17.95C6.66 19.765 8.385 19.255 9.075 18.94C9.18 18.16 9.495 17.635 9.84 17.335C7.17 17.035 4.38 16 4.38 11.41C4.38 10.105 4.845 9.02504 5.61 8.18504C5.49 7.88504 5.07 6.65504 5.73 5.00504C5.73 5.00504 6.735 4.69004 9.03 6.23504C9.99 5.96504 11.01 5.83004 12.03 5.83004C13.05 5.83004 14.07 5.96504 15.03 6.23504C17.325 4.67504 18.33 5.00504 18.33 5.00504C18.99 6.65504 18.57 7.88504 18.45 8.18504C19.215 9.02504 19.68 10.09 19.68 11.41C19.68 16.015 16.875 17.035 14.205 17.335C14.64 17.71 15.015 18.43 15.015 19.555C15.015 21.16 15 22.45 15 22.855C15 23.17 15.225 23.545 15.825 23.425C18.2072 22.6208 20.2772 21.0897 21.7437 19.0474C23.2101 17.0051 23.9993 14.5543 24 12.04C24 5.41004 18.63 0.0400391 12 0.0400391Z" fill="black"/>
</svg>
