<svg width="24" height="25" viewBox="0 0 24 25" fill="none" xmlns="http://www.w3.org/2000/svg">
<path fill-rule="evenodd" clip-rule="evenodd" d="M11.372 0.637748C11.752 0.384748 12.247 0.384748 12.628 0.637748L23.492 7.84775C23.809 8.05775 24 8.41275 24 8.79375V16.1017C24 16.4817 23.81 16.8377 23.492 17.0487L12.628 24.2587C12.248 24.5107 11.753 24.5107 11.372 24.2587L0.508 17.0477C0.351885 16.9442 0.223807 16.8036 0.135174 16.6386C0.0465408 16.4735 0.000104234 16.2891 0 16.1017V8.79375C0 8.41375 0.19 8.05775 0.508 7.84675L11.372 0.637748ZM2.272 10.9107V13.9687L4.56 12.4287L2.272 10.9107ZM6.609 13.7887L3.18 16.0957L10.864 21.1957V16.6127L6.609 13.7887ZM13.136 16.6127V21.1947L20.82 16.0947L17.39 13.7887L13.136 16.6127ZM19.439 12.4297L21.729 13.9697V10.9097L19.439 12.4297ZM20.81 8.79375L17.4 11.0567L13.136 8.18875V3.70075L20.81 8.79375ZM10.864 3.70075V8.18775L6.601 11.0557L3.19 8.79375L10.864 3.70075ZM12 10.1627L8.65 12.4167L12 14.6397L15.35 12.4167L12 10.1627Z" fill="black"/>
</svg>
