<svg width="24" height="25" viewBox="0 0 24 25" fill="none" xmlns="http://www.w3.org/2000/svg">
<path d="M11.538 20.4478C10.473 20.4478 9.55 20.2158 8.768 19.7518C8.00381 19.3034 7.38191 18.6483 6.974 17.8618C6.55575 17.0637 6.24761 16.2126 6.058 15.3318C5.85897 14.3835 5.76175 13.4167 5.768 12.4478C5.768 11.6818 5.818 10.9488 5.92 10.2478C6.02 9.54875 6.205 8.83775 6.476 8.11575C6.72171 7.43853 7.07342 6.80463 7.518 6.23775C7.9694 5.68651 8.53962 5.24448 9.186 4.94475C9.875 4.61275 10.658 4.44775 11.538 4.44775C12.603 4.44775 13.526 4.67975 14.308 5.14375C15.0722 5.59207 15.6941 6.24726 16.102 7.03375C16.52 7.82875 16.825 8.67275 17.018 9.56375C17.21 10.4548 17.308 11.4168 17.308 12.4478C17.308 13.2138 17.258 13.9468 17.156 14.6478C17.0477 15.3775 16.8575 16.0927 16.589 16.7798C16.3372 17.4542 15.9859 18.0872 15.547 18.6578C15.129 19.1878 14.577 19.6198 13.89 19.9508C13.202 20.2828 12.419 20.4478 11.538 20.4478ZM13.575 14.5658C14.126 14.0118 14.433 13.2458 14.423 12.4478C14.423 11.6238 14.147 10.9178 13.596 10.3298C13.044 9.74175 12.358 9.44775 11.538 9.44775C10.718 9.44775 10.032 9.74175 9.48 10.3298C8.9359 10.8991 8.63867 11.6603 8.653 12.4478C8.653 13.2718 8.929 13.9778 9.48 14.5658C10.032 15.1538 10.718 15.4478 11.538 15.4478C12.358 15.4478 13.038 15.1538 13.575 14.5658ZM11.538 24.4478C17.91 24.4478 23.076 19.0748 23.076 12.4478C23.076 5.82075 17.91 0.447754 11.538 0.447754C5.166 0.447754 0 5.82075 0 12.4478C0 19.0748 5.166 24.4478 11.538 24.4478Z" fill="black"/>
</svg>
