<svg width="24" height="24" viewBox="0 0 24 24" fill="none" xmlns="http://www.w3.org/2000/svg">
	<path d="M12.0001 3.00073C7.03749 3.00073 3.00015 7.03807 3.00015 12.0007C3.00015 16.9634 7.03749 21.0007 12.0001 21.0007C16.9628 21.0007 21.0001 16.9634 21.0001 12.0007C21.0001 7.03807 16.9628 3.00073 12.0001 3.00073ZM16.2803 16.2809C16.1397 16.4214 15.949 16.5004 15.7501 16.5004C15.5513 16.5004 15.3606 16.4214 15.22 16.2809L13.2119 14.2732C12.3635 14.857 11.3276 15.1027 10.3074 14.962C9.28727 14.8213 8.3565 14.3045 7.69777 13.5129C7.03904 12.7214 6.69991 11.7122 6.74693 10.6835C6.79395 9.65471 7.22372 8.68068 7.95191 7.95249C8.6801 7.2243 9.65413 6.79453 10.6829 6.74751C11.7116 6.70049 12.7208 7.03962 13.5124 7.69835C14.3039 8.35708 14.8208 9.28785 14.9614 10.308C15.1021 11.3282 14.8564 12.3641 14.2726 13.2124L16.2803 15.2206C16.4208 15.3612 16.4998 15.5519 16.4998 15.7507C16.4998 15.9496 16.4208 16.1402 16.2803 16.2809Z"
		fill="black" />
	<path d="M10.8751 13.501C12.3249 13.501 13.5001 12.3257 13.5001 10.876C13.5001 9.42623 12.3249 8.25098 10.8751 8.25098C9.42537 8.25098 8.25012 9.42623 8.25012 10.876C8.25012 12.3257 9.42537 13.501 10.8751 13.501Z"
		fill="black" />
</svg>