<svg width="24" height="25" viewBox="0 0 24 25" fill="none" xmlns="http://www.w3.org/2000/svg">
<path d="M10.59 13.8578C11 14.2478 11 14.8878 10.59 15.2778C10.2 15.6678 9.56002 15.6678 9.17002 15.2778C8.23339 14.3397 7.70732 13.0683 7.70732 11.7428C7.70732 10.4172 8.23339 9.1458 9.17002 8.20777L12.71 4.66777C13.648 3.73115 14.9194 3.20508 16.245 3.20508C17.5706 3.20508 18.842 3.73115 19.78 4.66777C20.7166 5.6058 21.2427 6.87719 21.2427 8.20277C21.2427 9.52835 20.7166 10.7997 19.78 11.7378L18.29 13.2278C18.3 12.4078 18.17 11.5878 17.89 10.8078L18.36 10.3278C18.6404 10.0505 18.8629 9.7203 19.0148 9.3564C19.1667 8.9925 19.2449 8.60209 19.2449 8.20777C19.2449 7.81345 19.1667 7.42304 19.0148 7.05914C18.8629 6.69524 18.6404 6.36508 18.36 6.08777C18.0827 5.80743 17.7525 5.58488 17.3886 5.43299C17.0247 5.2811 16.6343 5.20289 16.24 5.20289C15.8457 5.20289 15.4553 5.2811 15.0914 5.43299C14.7275 5.58488 14.3973 5.80743 14.12 6.08777L10.59 9.61777C10.3097 9.89508 10.0871 10.2252 9.93524 10.5891C9.78335 10.953 9.70514 11.3434 9.70514 11.7378C9.70514 12.1321 9.78335 12.5225 9.93524 12.8864C10.0871 13.2503 10.3097 13.5805 10.59 13.8578M13.41 9.61777C13.8 9.22777 14.44 9.22777 14.83 9.61777C15.7666 10.5558 16.2927 11.8272 16.2927 13.1528C16.2927 14.4783 15.7666 15.7497 14.83 16.6878L11.29 20.2278C10.352 21.1644 9.08059 21.6905 7.75502 21.6905C6.42944 21.6905 5.15804 21.1644 4.22002 20.2278C3.28339 19.2897 2.75732 18.0183 2.75732 16.6928C2.75732 15.3672 3.28339 14.0958 4.22002 13.1578L5.71002 11.6678C5.70002 12.4878 5.83002 13.3078 6.11002 14.0978L5.64002 14.5678C5.35968 14.8451 5.13712 15.1752 4.98524 15.5391C4.83335 15.903 4.75514 16.2934 4.75514 16.6878C4.75514 17.0821 4.83335 17.4725 4.98524 17.8364C5.13712 18.2003 5.35968 18.5305 5.64002 18.8078C5.91733 19.0881 6.24749 19.3107 6.61139 19.4625C6.97528 19.6144 7.36569 19.6926 7.76002 19.6926C8.15434 19.6926 8.54475 19.6144 8.90865 19.4625C9.27254 19.3107 9.6027 19.0881 9.88002 18.8078L13.41 15.2778C13.6904 15.0005 13.9129 14.6703 14.0648 14.3064C14.2167 13.9425 14.2949 13.5521 14.2949 13.1578C14.2949 12.7634 14.2167 12.373 14.0648 12.0091C13.9129 11.6452 13.6904 11.3151 13.41 11.0378C13.3129 10.9468 13.2355 10.8368 13.1826 10.7147C13.1296 10.5926 13.1023 10.4609 13.1023 10.3278C13.1023 10.1947 13.1296 10.063 13.1826 9.94087C13.2355 9.81874 13.3129 9.70878 13.41 9.61777V9.61777Z" fill="black"/>
</svg>
