<svg width="22" height="23" viewBox="0 0 22 23" fill="none" xmlns="http://www.w3.org/2000/svg">
<path fill-rule="evenodd" clip-rule="evenodd" d="M2.7206e-07 2.286C2.7206e-07 1.79853 0.193646 1.33103 0.538338 0.986338C0.88303 0.641646 1.35053 0.448 1.838 0.448H20.16C20.4016 0.447606 20.6409 0.494863 20.8641 0.587067C21.0874 0.679271 21.2903 0.81461 21.4612 0.985337C21.6322 1.15606 21.7677 1.35882 21.8602 1.58201C21.9526 1.8052 22.0001 2.04443 22 2.286V20.608C22.0003 20.8496 21.9529 21.0889 21.8606 21.3122C21.7683 21.5355 21.6328 21.7384 21.462 21.9093C21.2912 22.0802 21.0884 22.2158 20.8651 22.3082C20.6419 22.4006 20.4026 22.4481 20.161 22.448H1.838C1.59655 22.448 1.35746 22.4004 1.1344 22.308C0.911335 22.2156 0.708671 22.0801 0.537984 21.9093C0.367297 21.7385 0.231932 21.5358 0.139623 21.3127C0.0473133 21.0896 -0.000131096 20.8505 2.7206e-07 20.609V2.286ZM8.708 8.836H11.687V10.332C12.117 9.472 13.217 8.698 14.87 8.698C18.039 8.698 18.79 10.411 18.79 13.554V19.376H15.583V14.27C15.583 12.48 15.153 11.47 14.061 11.47C12.546 11.47 11.916 12.559 11.916 14.27V19.376H8.708V8.836ZM3.208 19.239H6.416V8.698H3.208V19.239ZM6.875 5.26C6.88105 5.53467 6.83217 5.80779 6.73124 6.06331C6.63031 6.31884 6.47935 6.55164 6.28723 6.74803C6.09511 6.94443 5.8657 7.10047 5.61246 7.20701C5.35921 7.31354 5.08724 7.36842 4.8125 7.36842C4.53776 7.36842 4.26579 7.31354 4.01255 7.20701C3.7593 7.10047 3.52989 6.94443 3.33777 6.74803C3.14565 6.55164 2.99469 6.31884 2.89376 6.06331C2.79283 5.80779 2.74395 5.53467 2.75 5.26C2.76187 4.72085 2.98439 4.20779 3.36989 3.83069C3.75539 3.45358 4.27322 3.24242 4.8125 3.24242C5.35178 3.24242 5.86961 3.45358 6.25512 3.83069C6.64062 4.20779 6.86313 4.72085 6.875 5.26Z" fill="black"/>
</svg>
