<svg width="22" height="23" viewBox="0 0 22 23" fill="none" xmlns="http://www.w3.org/2000/svg">
<path fill-rule="evenodd" clip-rule="evenodd" d="M6.465 0.513998C7.638 0.459998 8.012 0.447998 11 0.447998C13.988 0.447998 14.362 0.460998 15.534 0.513998C16.706 0.566998 17.506 0.753998 18.206 1.025C18.939 1.302 19.604 1.735 20.154 2.295C20.714 2.844 21.146 3.508 21.422 4.242C21.694 4.942 21.88 5.742 21.934 6.912C21.988 8.087 22 8.461 22 11.448C22 14.436 21.987 14.81 21.934 15.983C21.881 17.153 21.694 17.953 21.422 18.653C21.146 19.3871 20.7133 20.0522 20.154 20.602C19.604 21.162 18.939 21.594 18.206 21.87C17.506 22.142 16.706 22.328 15.536 22.382C14.362 22.436 13.988 22.448 11 22.448C8.012 22.448 7.638 22.435 6.465 22.382C5.295 22.329 4.495 22.142 3.795 21.87C3.06092 21.594 2.39582 21.1613 1.846 20.602C1.28638 20.0527 0.853315 19.3879 0.577 18.654C0.306 17.954 0.12 17.154 0.066 15.984C0.012 14.809 0 14.435 0 11.448C0 8.46 0.013 8.086 0.066 6.914C0.119 5.742 0.306 4.942 0.577 4.242C0.853723 3.50808 1.28712 2.84331 1.847 2.294C2.39604 1.7345 3.06047 1.30144 3.794 1.025C4.494 0.753998 5.295 0.567998 6.465 0.513998ZM15.445 2.494C14.285 2.441 13.937 2.43 11 2.43C8.063 2.43 7.715 2.441 6.555 2.494C5.482 2.543 4.9 2.722 4.512 2.873C3.999 3.073 3.632 3.31 3.247 3.695C2.88205 4.05005 2.60118 4.48228 2.425 4.96C2.274 5.348 2.095 5.93 2.046 7.003C1.993 8.163 1.982 8.511 1.982 11.448C1.982 14.385 1.993 14.733 2.046 15.893C2.095 16.966 2.274 17.548 2.425 17.936C2.601 18.413 2.882 18.846 3.247 19.201C3.602 19.566 4.035 19.847 4.512 20.023C4.9 20.174 5.482 20.353 6.555 20.402C7.715 20.455 8.062 20.466 11 20.466C13.938 20.466 14.285 20.455 15.445 20.402C16.518 20.353 17.1 20.174 17.488 20.023C18.001 19.823 18.368 19.586 18.753 19.201C19.118 18.846 19.399 18.413 19.575 17.936C19.726 17.548 19.905 16.966 19.954 15.893C20.007 14.733 20.018 14.385 20.018 11.448C20.018 8.511 20.007 8.163 19.954 7.003C19.905 5.93 19.726 5.348 19.575 4.96C19.375 4.447 19.138 4.08 18.753 3.695C18.3979 3.33007 17.9657 3.04921 17.488 2.873C17.1 2.722 16.518 2.543 15.445 2.494ZM9.595 14.839C10.3797 15.1656 11.2534 15.2097 12.0669 14.9637C12.8805 14.7177 13.5834 14.1969 14.0556 13.4902C14.5278 12.7836 14.7401 11.9349 14.656 11.0891C14.572 10.2433 14.197 9.45297 13.595 8.853C13.2112 8.46947 12.7472 8.17581 12.2363 7.99314C11.7255 7.81048 11.1804 7.74336 10.6405 7.79661C10.1006 7.84987 9.57915 8.02218 9.1138 8.30113C8.64846 8.58008 8.25074 8.95874 7.9493 9.40985C7.64786 9.86096 7.45019 10.3733 7.37052 10.91C7.29084 11.4466 7.33115 11.9943 7.48854 12.5135C7.64593 13.0327 7.91648 13.5106 8.28072 13.9127C8.64496 14.3148 9.09382 14.6312 9.595 14.839ZM7.002 7.45C7.52702 6.92497 8.15032 6.5085 8.8363 6.22436C9.52228 5.94022 10.2575 5.79397 11 5.79397C11.7425 5.79397 12.4777 5.94022 13.1637 6.22436C13.8497 6.5085 14.473 6.92497 14.998 7.45C15.523 7.97502 15.9395 8.59832 16.2236 9.2843C16.5078 9.97027 16.654 10.7055 16.654 11.448C16.654 12.1905 16.5078 12.9257 16.2236 13.6117C15.9395 14.2977 15.523 14.921 14.998 15.446C13.9377 16.5063 12.4995 17.102 11 17.102C9.50046 17.102 8.06234 16.5063 7.002 15.446C5.94166 14.3857 5.34597 12.9475 5.34597 11.448C5.34597 9.94846 5.94166 8.51033 7.002 7.45ZM17.908 6.636C18.0381 6.51327 18.1423 6.36568 18.2143 6.20197C18.2863 6.03827 18.3248 5.86177 18.3274 5.68293C18.33 5.50409 18.2967 5.32655 18.2295 5.16081C18.1622 4.99507 18.0624 4.84451 17.936 4.71804C17.8095 4.59157 17.6589 4.49176 17.4932 4.42452C17.3275 4.35728 17.1499 4.32397 16.9711 4.32658C16.7922 4.32919 16.6157 4.36765 16.452 4.43969C16.2883 4.51174 16.1407 4.61589 16.018 4.746C15.7793 4.99903 15.6486 5.33512 15.6537 5.68293C15.6588 6.03074 15.7992 6.36288 16.0452 6.60884C16.2911 6.8548 16.6233 6.99523 16.9711 7.0003C17.3189 7.00537 17.655 6.87469 17.908 6.636Z" fill="black"/>
</svg>
