<svg width="28" height="33" viewBox="0 0 28 33" fill="none" xmlns="http://www.w3.org/2000/svg">
<path d="M22.854 29.5988V21.0628H25.703V32.4478H0V21.0628H2.839V29.5988H22.854ZM5.687 26.7548H20.011V23.9068H5.687V26.7548ZM6.037 20.2868L20.012 23.2028L20.611 20.4428L6.642 17.5308L6.037 20.2868ZM7.849 13.5468L20.788 19.5838L21.991 16.9838L9.054 10.9428L7.85 13.5268L7.849 13.5468ZM11.469 7.16675L22.422 16.3078L24.235 14.1448L13.282 5.00975L11.479 7.16075L11.469 7.16675ZM18.542 0.447754L16.214 2.17175L24.755 13.6448L27.083 11.9208L18.542 0.447754Z" fill="black"/>
</svg>
